<svg width="50" height="50" xmlns="http://www.w3.org/2000/svg" xml:space="preserve" version="1.1" enable-background="new 0 0 512 512">
 <defs>
  <linearGradient y2="0.5" y1="0.5" x2="1" x1="0" id="SVGID_1_">
   <stop stop-color="#33B49D" offset="0"/>
   <stop stop-color="#00A185" offset="1"/>
  </linearGradient>
  <linearGradient y2="0.5" y1="0.5" x2="1" x1="0" id="SVGID_2_">
   <stop stop-color="#00A185" offset="0"/>
   <stop stop-color="#33B49D" offset="1"/>
  </linearGradient>
 </defs>
 <g>
  <title>Layer 1</title>
  <g stroke="null" id="svg_1">
   <g stroke="null" id="svg_2">
    <circle stroke="null" id="svg_3" r="20" fill="url(#SVGID_1_)" cy="25.5" cx="25"/>
    <path stroke="null" id="svg_4" fill="url(#SVGID_2_)" d="m25,43.31254c-9.18996,0 -16.66667,-7.99078 -16.66667,-17.8125c0,-9.82177 7.4767,-17.8125 16.66667,-17.8125c9.19033,0 16.66667,7.99073 16.66667,17.8125c0,9.82172 -7.47634,17.8125 -16.66667,17.8125z"/>
   </g>
   <path stroke="null" id="svg_5" opacity="0.3" d="m25.625,16.70414l-9.375,3.63896l0.26191,0.77391l1.41742,-0.54751l0,15.06225l6.02792,0l0,-5.07977l3.33554,0l0,5.07977l6.03175,0l0,-15.06225l1.41354,0.54751l0.26192,-0.77391l-9.375,-3.63896zm-0.85413,11.66438l-4.71675,0l0,-2.43448l4.71675,0l0,2.43448zm0,-4.29686l-4.71675,0l0,-2.43457l4.71675,0l0,2.43457zm6.42513,4.29686l-4.71675,0l0,-2.43448l4.71675,0l0,2.43448zm0,-4.29686l-4.71675,0l0,-2.43457l4.71675,0l0,2.43457z"/>
   <path stroke="null" id="svg_6" fill="#FFFFFF" d="m25,16.03617l-9.375,3.63896l0.26191,0.77391l1.41742,-0.54751l0,15.06225l6.02792,0l0,-5.07977l3.33554,0l0,5.07977l6.03175,0l0,-15.06225l1.41354,0.54751l0.26192,-0.77391l-9.375,-3.63896zm-0.85413,11.66438l-4.71675,0l0,-2.43448l4.71675,0l0,2.43448zm0,-4.29686l-4.71675,0l0,-2.43457l4.71675,0l0,2.43457zm6.42513,4.29686l-4.71675,0l0,-2.43448l4.71675,0l0,2.43448zm0,-4.29686l-4.71675,0l0,-2.43457l4.71675,0l0,2.43457z"/>
  </g>
 </g>
</svg>